<svg width="37" height="36" viewBox="0 0 37 36" fill="none" xmlns="http://www.w3.org/2000/svg">
<path fill-rule="evenodd" clip-rule="evenodd" d="M25.9762 34.397C19.204 37.4037 10.952 36.1806 5.38377 30.7279C-1.79459 23.6985 -1.79459 12.3015 5.38377 5.27207C12.5621 -1.75736 24.2005 -1.75736 31.3789 5.27207C36.9472 10.7248 38.1961 18.8056 35.1257 25.4373C32.8344 25.5887 30.5868 26.522 28.8354 28.2371C27.0839 29.9523 26.1308 32.1532 25.9762 34.397ZM25.3382 24.8126C21.496 28.5751 15.2666 28.5751 11.4244 24.8126C7.58221 21.0501 7.58221 14.9499 11.4244 11.1874C15.2666 7.4249 21.496 7.4249 25.3382 11.1874C29.1804 14.9499 29.1804 21.0501 25.3382 24.8126Z" fill="#0E287E"/>
</svg>
