<svg width="170" height="36" viewBox="0 0 170 36" fill="none" xmlns="http://www.w3.org/2000/svg">
  <path fill-rule="evenodd" clip-rule="evenodd" d="M25.4372 34.397C18.8056 37.4037 10.7248 36.1806 5.27207 30.7279C-1.75736 23.6985 -1.75736 12.3015 5.27207 5.27207C12.3015 -1.75736 23.6985 -1.75736 30.7279 5.27207C36.1806 10.7248 37.4037 18.8056 34.397 25.4372C32.1532 25.5887 29.9523 26.522 28.2371 28.2371C26.522 29.9523 25.5887 32.1532 25.4372 34.397ZM24.8126 24.8126C21.0501 28.575 14.9499 28.575 11.1874 24.8126C7.4249 21.0501 7.4249 14.9499 11.1874 11.1874C14.9499 7.4249 21.0501 7.4249 24.8126 11.1874C28.575 14.9499 28.575 21.0501 24.8126 24.8126Z" fill="#132B7E"/>
  <path d="M107.718 21.74C107.718 21.74 107.718 28.7302 107.718 28.7577H104.31V27.9596C103.348 28.5651 102.221 28.9228 101.012 28.9228C97.3016 28.9228 94.306 25.7029 94.306 21.74C94.306 17.7771 97.3016 14.5572 101.012 14.5572C102.221 14.5572 103.348 14.8874 104.31 15.4929V14.6398H107.718V21.74ZM104.31 21.74V21.7125C104.31 19.6485 102.826 17.9697 101.012 17.9697C99.1704 17.9697 97.6864 19.6485 97.6864 21.74C97.6864 23.804 99.1704 25.5103 101.012 25.5103C102.826 25.5103 104.31 23.8316 104.31 21.74Z" fill="#132B7E"/>
  <path d="M89.6968 14.3095C88.57 14.3095 87.6905 13.4289 87.6905 12.3005C87.6905 11.1997 88.57 10.2915 89.6968 10.2915C90.7961 10.2915 91.703 11.1997 91.703 12.3005C91.703 13.4289 90.7961 14.3095 89.6968 14.3095ZM91.4007 28.7577H87.9929V14.6673H91.4007V28.7577Z" fill="#132B7E"/>
  <path d="M85.0202 21.7951L84.9652 23.4463L75.7859 23.4188C76.3631 24.5196 77.4624 25.3727 78.7266 25.5103C80.568 25.758 81.9421 24.3544 82.107 24.1893L84.5805 26.5286C84.1682 26.9689 82.1345 28.9503 79.1389 28.9503C78.864 28.9503 78.5892 28.9228 78.2869 28.8953C74.7416 28.455 71.9933 25.2901 71.9933 21.74C71.9933 19.7585 72.8178 17.7771 74.1919 16.3735C75.3737 15.1902 76.9127 14.5847 78.5067 14.5572C80.2107 14.5572 81.8322 15.2727 83.0414 16.5662C84.3881 17.9422 85.1026 19.8411 85.0202 21.7951ZM75.7585 20.0062L81.3375 20.0338C81.1451 19.6209 80.8978 19.2357 80.5954 18.9329C80.0183 18.3 79.2488 17.9697 78.4793 17.9697C77.6273 17.9697 76.9677 18.4101 76.5829 18.7953C76.2531 19.1256 75.9508 19.5384 75.7585 20.0062Z" fill="#132B7E"/>
  <path d="M62.747 14.6673C66.3748 14.6673 69.288 17.612 69.288 21.2171V28.7577H65.9076V21.2171C65.9076 19.4833 64.4785 18.0523 62.747 18.0523C61.0156 18.0523 59.614 19.4833 59.614 21.2171V28.7577H56.2336V9.49345H59.614V15.4654C60.5484 14.97 61.6202 14.6673 62.747 14.6673Z" fill="#132B7E"/>
  <path d="M50.9348 25.3727H53.2708V28.7577H50.9348C48.6262 28.7577 46.7299 26.8863 46.7299 24.5746V18.0248H45.4932V14.6122H46.7299V12.9885H50.1378V14.6122H52.8311V18.0248H50.1378V24.5746C50.1378 25.0149 50.495 25.3727 50.9348 25.3727Z" fill="#132B7E"/>
  <path d="M141.365 28.7465H143.207V21.2355C143.207 17.7149 140.358 14.8409 136.812 14.8409C135.718 14.8409 134.785 15.0885 133.742 15.6237C133.203 15.9002 132.696 16.3106 132.33 16.6424C132.323 16.6481 132.317 16.6538 132.311 16.6596C132.304 16.6659 132.297 16.6722 132.29 16.6784V9.01045H130.449V28.7465H132.29V21.2355C132.29 18.7477 134.303 16.6824 136.812 16.6824C139.311 16.6824 141.365 18.7368 141.365 21.2355V28.7465Z" fill="#0E287E"/>
  <path d="M165.593 12.9491H163.721V14.7789H162.325V16.6514H163.721V25.0191C163.721 27.0706 165.41 28.7465 167.479 28.7465H169.129V26.9051H167.479C166.438 26.9051 165.593 26.0602 165.593 25.0191V16.6514H168.632V14.7789H165.593V12.9491Z" fill="#0E287E"/>
  <path fill-rule="evenodd" clip-rule="evenodd" d="M159.223 14.8099H157.351V16.9945C156.986 16.5642 156.466 16.0304 155.844 15.6234C155.227 15.2191 154.718 14.9874 154.207 14.8606C153.699 14.7346 153.207 14.7169 152.643 14.7169C149.064 14.7169 146.062 17.8377 146.062 21.8247C146.062 25.8117 149.064 28.9326 152.643 28.9326C153.808 28.9326 154.795 28.6381 155.836 28.0004C156.368 27.6745 156.895 27.1852 157.28 26.7898C157.292 26.7772 157.304 26.7647 157.316 26.7523C157.328 26.7403 157.339 26.7284 157.351 26.7165V28.7465H159.223V14.8099ZM157.351 21.7937V21.8247C157.351 24.606 155.348 27.0601 152.643 27.0601C149.907 27.0601 147.903 24.5756 147.903 21.8247C147.903 19.038 149.911 16.5893 152.643 16.5893C155.343 16.5893 157.351 19.0386 157.351 21.7937Z" fill="#0E287E"/>
  <path d="M127.066 25.5055L125.33 24.7897L125.179 25.0034C124.285 26.264 122.888 27.0601 121.36 27.0601C118.6 27.0601 116.527 24.5525 116.527 21.7317C116.527 18.8846 118.596 16.3722 121.36 16.3722C122.891 16.3722 124.259 17.1688 125.155 18.3987L125.309 18.6099L127.036 17.8767L126.82 17.5475C125.584 15.6653 123.543 14.5308 121.36 14.5308C117.747 14.5308 114.686 17.6862 114.686 21.7317C114.686 25.7488 117.75 28.9326 121.36 28.9326C123.562 28.9326 125.614 27.7597 126.853 25.8373L127.066 25.5055Z" fill="#0E287E"/>
</svg>
